<mxfile host="Electron" modified="2023-08-17T19:06:17.343Z" agent="Mozilla/5.0 (Macintosh; Intel Mac OS X 10_15_7) AppleWebKit/537.36 (KHTML, like Gecko) draw.io/21.6.8 Chrome/114.0.5735.289 Electron/25.5.0 Safari/537.36" etag="Tf4_q51WCve__7pBp4TN" version="21.6.8" type="device">
  <diagram name="Page-1" id="CdUy7fLaVNIJFlF2VeQ9">
    <mxGraphModel dx="1004" dy="642" grid="1" gridSize="10" guides="1" tooltips="1" connect="1" arrows="1" fold="1" page="1" pageScale="1" pageWidth="1100" pageHeight="850" math="0" shadow="0">
      <root>
        <mxCell id="0" />
        <mxCell id="1" parent="0" />
        <mxCell id="95mYCwTlqbxVoNsBIj1y-30" value="" style="rounded=0;whiteSpace=wrap;html=1;labelBackgroundColor=none;labelBorderColor=none;" vertex="1" parent="1">
          <mxGeometry x="140" y="110" width="820" height="470" as="geometry" />
        </mxCell>
        <mxCell id="95mYCwTlqbxVoNsBIj1y-1" value="" style="shape=flexArrow;endArrow=classic;startArrow=classic;html=1;rounded=0;fillColor=#009900;gradientColor=#FF0000;" edge="1" parent="1">
          <mxGeometry width="100" height="100" relative="1" as="geometry">
            <mxPoint x="180" y="560" as="sourcePoint" />
            <mxPoint x="180" y="130" as="targetPoint" />
          </mxGeometry>
        </mxCell>
        <mxCell id="95mYCwTlqbxVoNsBIj1y-2" value="" style="rounded=0;whiteSpace=wrap;html=1;" vertex="1" parent="1">
          <mxGeometry x="200" y="160" width="390" height="110" as="geometry" />
        </mxCell>
        <mxCell id="95mYCwTlqbxVoNsBIj1y-3" value="" style="sketch=0;points=[[0,0,0],[0.25,0,0],[0.5,0,0],[0.75,0,0],[1,0,0],[0,1,0],[0.25,1,0],[0.5,1,0],[0.75,1,0],[1,1,0],[0,0.25,0],[0,0.5,0],[0,0.75,0],[1,0.25,0],[1,0.5,0],[1,0.75,0]];outlineConnect=0;fontColor=#232F3E;gradientColor=#F54749;gradientDirection=north;fillColor=#C7131F;strokeColor=#ffffff;dashed=0;verticalLabelPosition=bottom;verticalAlign=top;align=center;html=1;fontSize=12;fontStyle=0;aspect=fixed;shape=mxgraph.aws4.resourceIcon;resIcon=mxgraph.aws4.amplify;" vertex="1" parent="1">
          <mxGeometry x="210" y="170" width="40" height="40" as="geometry" />
        </mxCell>
        <mxCell id="95mYCwTlqbxVoNsBIj1y-4" value="" style="sketch=0;points=[[0,0,0],[0.25,0,0],[0.5,0,0],[0.75,0,0],[1,0,0],[0,1,0],[0.25,1,0],[0.5,1,0],[0.75,1,0],[1,1,0],[0,0.25,0],[0,0.5,0],[0,0.75,0],[1,0.25,0],[1,0.5,0],[1,0.75,0]];outlineConnect=0;fontColor=#232F3E;gradientColor=#F78E04;gradientDirection=north;fillColor=#D05C17;strokeColor=#ffffff;dashed=0;verticalLabelPosition=bottom;verticalAlign=top;align=center;html=1;fontSize=12;fontStyle=0;aspect=fixed;shape=mxgraph.aws4.resourceIcon;resIcon=mxgraph.aws4.lambda;" vertex="1" parent="1">
          <mxGeometry x="210" y="220" width="40" height="40" as="geometry" />
        </mxCell>
        <mxCell id="95mYCwTlqbxVoNsBIj1y-5" value="&lt;b&gt;Amplify&lt;/b&gt; - Serverless Framework" style="text;html=1;strokeColor=none;fillColor=none;align=left;verticalAlign=middle;whiteSpace=wrap;rounded=0;fontSize=17;" vertex="1" parent="1">
          <mxGeometry x="260" y="170" width="300" height="40" as="geometry" />
        </mxCell>
        <mxCell id="95mYCwTlqbxVoNsBIj1y-6" value="&lt;b&gt;Lambda&lt;/b&gt; - Serverless Architecture" style="text;html=1;strokeColor=none;fillColor=none;align=left;verticalAlign=middle;whiteSpace=wrap;rounded=0;fontSize=17;" vertex="1" parent="1">
          <mxGeometry x="260" y="220" width="300" height="40" as="geometry" />
        </mxCell>
        <mxCell id="95mYCwTlqbxVoNsBIj1y-7" value="" style="rounded=0;whiteSpace=wrap;html=1;" vertex="1" parent="1">
          <mxGeometry x="200" y="290" width="390" height="110" as="geometry" />
        </mxCell>
        <mxCell id="95mYCwTlqbxVoNsBIj1y-10" value="&lt;b&gt;Fargate&lt;/b&gt; - Serverless Containers" style="text;html=1;strokeColor=none;fillColor=none;align=left;verticalAlign=middle;whiteSpace=wrap;rounded=0;fontSize=17;" vertex="1" parent="1">
          <mxGeometry x="260" y="300" width="300" height="40" as="geometry" />
        </mxCell>
        <mxCell id="95mYCwTlqbxVoNsBIj1y-11" value="&lt;b&gt;ECS/EKS&lt;/b&gt;&amp;nbsp;- Containers" style="text;html=1;strokeColor=none;fillColor=none;align=left;verticalAlign=middle;whiteSpace=wrap;rounded=0;fontSize=17;" vertex="1" parent="1">
          <mxGeometry x="320" y="350" width="240" height="40" as="geometry" />
        </mxCell>
        <mxCell id="95mYCwTlqbxVoNsBIj1y-12" value="" style="rounded=0;whiteSpace=wrap;html=1;" vertex="1" parent="1">
          <mxGeometry x="200" y="420" width="390" height="110" as="geometry" />
        </mxCell>
        <mxCell id="95mYCwTlqbxVoNsBIj1y-15" value="&lt;b&gt;Elastic Beanstalk&lt;/b&gt; - Platform as a Service" style="text;html=1;strokeColor=none;fillColor=none;align=left;verticalAlign=middle;whiteSpace=wrap;rounded=0;fontSize=17;" vertex="1" parent="1">
          <mxGeometry x="260" y="430" width="320" height="40" as="geometry" />
        </mxCell>
        <mxCell id="95mYCwTlqbxVoNsBIj1y-16" value="&lt;b&gt;EC2&lt;/b&gt; - Infrastructure as a Service" style="text;html=1;strokeColor=none;fillColor=none;align=left;verticalAlign=middle;whiteSpace=wrap;rounded=0;fontSize=17;" vertex="1" parent="1">
          <mxGeometry x="260" y="480" width="300" height="40" as="geometry" />
        </mxCell>
        <mxCell id="95mYCwTlqbxVoNsBIj1y-17" value="" style="sketch=0;points=[[0,0,0],[0.25,0,0],[0.5,0,0],[0.75,0,0],[1,0,0],[0,1,0],[0.25,1,0],[0.5,1,0],[0.75,1,0],[1,1,0],[0,0.25,0],[0,0.5,0],[0,0.75,0],[1,0.25,0],[1,0.5,0],[1,0.75,0]];outlineConnect=0;fontColor=#232F3E;gradientColor=#F78E04;gradientDirection=north;fillColor=#D05C17;strokeColor=#ffffff;dashed=0;verticalLabelPosition=bottom;verticalAlign=top;align=center;html=1;fontSize=12;fontStyle=0;aspect=fixed;shape=mxgraph.aws4.resourceIcon;resIcon=mxgraph.aws4.fargate;" vertex="1" parent="1">
          <mxGeometry x="210" y="300" width="40" height="40" as="geometry" />
        </mxCell>
        <mxCell id="95mYCwTlqbxVoNsBIj1y-18" value="" style="sketch=0;points=[[0,0,0],[0.25,0,0],[0.5,0,0],[0.75,0,0],[1,0,0],[0,1,0],[0.25,1,0],[0.5,1,0],[0.75,1,0],[1,1,0],[0,0.25,0],[0,0.5,0],[0,0.75,0],[1,0.25,0],[1,0.5,0],[1,0.75,0]];outlineConnect=0;fontColor=#232F3E;gradientColor=#F78E04;gradientDirection=north;fillColor=#D05C17;strokeColor=#ffffff;dashed=0;verticalLabelPosition=bottom;verticalAlign=top;align=center;html=1;fontSize=12;fontStyle=0;aspect=fixed;shape=mxgraph.aws4.resourceIcon;resIcon=mxgraph.aws4.ecs;" vertex="1" parent="1">
          <mxGeometry x="210" y="350" width="40" height="40" as="geometry" />
        </mxCell>
        <mxCell id="95mYCwTlqbxVoNsBIj1y-19" value="" style="sketch=0;points=[[0,0,0],[0.25,0,0],[0.5,0,0],[0.75,0,0],[1,0,0],[0,1,0],[0.25,1,0],[0.5,1,0],[0.75,1,0],[1,1,0],[0,0.25,0],[0,0.5,0],[0,0.75,0],[1,0.25,0],[1,0.5,0],[1,0.75,0]];outlineConnect=0;fontColor=#232F3E;gradientColor=#F78E04;gradientDirection=north;fillColor=#D05C17;strokeColor=#ffffff;dashed=0;verticalLabelPosition=bottom;verticalAlign=top;align=center;html=1;fontSize=12;fontStyle=0;aspect=fixed;shape=mxgraph.aws4.resourceIcon;resIcon=mxgraph.aws4.eks;" vertex="1" parent="1">
          <mxGeometry x="260" y="350" width="40" height="40" as="geometry" />
        </mxCell>
        <mxCell id="95mYCwTlqbxVoNsBIj1y-20" value="" style="sketch=0;points=[[0,0,0],[0.25,0,0],[0.5,0,0],[0.75,0,0],[1,0,0],[0,1,0],[0.25,1,0],[0.5,1,0],[0.75,1,0],[1,1,0],[0,0.25,0],[0,0.5,0],[0,0.75,0],[1,0.25,0],[1,0.5,0],[1,0.75,0]];outlineConnect=0;fontColor=#232F3E;gradientColor=#F78E04;gradientDirection=north;fillColor=#D05C17;strokeColor=#ffffff;dashed=0;verticalLabelPosition=bottom;verticalAlign=top;align=center;html=1;fontSize=12;fontStyle=0;aspect=fixed;shape=mxgraph.aws4.resourceIcon;resIcon=mxgraph.aws4.elastic_beanstalk;" vertex="1" parent="1">
          <mxGeometry x="210" y="430" width="40" height="40" as="geometry" />
        </mxCell>
        <mxCell id="95mYCwTlqbxVoNsBIj1y-21" value="" style="sketch=0;points=[[0,0,0],[0.25,0,0],[0.5,0,0],[0.75,0,0],[1,0,0],[0,1,0],[0.25,1,0],[0.5,1,0],[0.75,1,0],[1,1,0],[0,0.25,0],[0,0.5,0],[0,0.75,0],[1,0.25,0],[1,0.5,0],[1,0.75,0]];outlineConnect=0;fontColor=#232F3E;gradientColor=#F78E04;gradientDirection=north;fillColor=#D05C17;strokeColor=#ffffff;dashed=0;verticalLabelPosition=bottom;verticalAlign=top;align=center;html=1;fontSize=12;fontStyle=0;aspect=fixed;shape=mxgraph.aws4.resourceIcon;resIcon=mxgraph.aws4.ec2;" vertex="1" parent="1">
          <mxGeometry x="210" y="480" width="40" height="40" as="geometry" />
        </mxCell>
        <mxCell id="95mYCwTlqbxVoNsBIj1y-22" value="Less Responsibility" style="text;html=1;strokeColor=none;fillColor=none;align=left;verticalAlign=bottom;whiteSpace=wrap;rounded=0;fontSize=12;" vertex="1" parent="1">
          <mxGeometry x="200" y="110" width="300" height="40" as="geometry" />
        </mxCell>
        <mxCell id="95mYCwTlqbxVoNsBIj1y-23" value="More Responsibility" style="text;html=1;strokeColor=none;fillColor=none;align=left;verticalAlign=top;whiteSpace=wrap;rounded=0;fontSize=12;" vertex="1" parent="1">
          <mxGeometry x="200" y="540" width="300" height="40" as="geometry" />
        </mxCell>
        <mxCell id="95mYCwTlqbxVoNsBIj1y-25" value="" style="rounded=0;whiteSpace=wrap;html=1;labelBackgroundColor=#252F3E;" vertex="1" parent="1">
          <mxGeometry x="610" y="160" width="320" height="110" as="geometry" />
        </mxCell>
        <mxCell id="95mYCwTlqbxVoNsBIj1y-24" value="&lt;p style=&quot;box-sizing: border-box; font-family: Nunito, arial, sans-serif; color: rgb(228, 230, 235); font-size: medium; text-align: start;&quot;&gt;&lt;strong style=&quot;box-sizing: border-box;&quot;&gt;Serverless&lt;/strong&gt;&amp;nbsp;/ Functions&lt;/p&gt;&lt;p style=&quot;box-sizing: border-box; font-family: Nunito, arial, sans-serif; color: rgb(228, 230, 235); font-size: medium; text-align: start;&quot;&gt;No more servers, just worry about data and code&lt;/p&gt;" style="text;html=1;strokeColor=none;fillColor=none;align=center;verticalAlign=middle;whiteSpace=wrap;rounded=0;labelBackgroundColor=none;labelBorderColor=none;" vertex="1" parent="1">
          <mxGeometry x="620" y="170" width="240" height="95" as="geometry" />
        </mxCell>
        <mxCell id="95mYCwTlqbxVoNsBIj1y-26" value="" style="rounded=0;whiteSpace=wrap;html=1;" vertex="1" parent="1">
          <mxGeometry x="610" y="290" width="320" height="110" as="geometry" />
        </mxCell>
        <mxCell id="95mYCwTlqbxVoNsBIj1y-27" value="&lt;p style=&quot;box-sizing: border-box; font-family: Nunito, arial, sans-serif; color: rgb(228, 230, 235); font-size: medium; text-align: start;&quot;&gt;&lt;strong style=&quot;box-sizing: border-box;&quot;&gt;Microservices&lt;/strong&gt;&amp;nbsp;/ Containers&lt;/p&gt;&lt;p style=&quot;box-sizing: border-box; font-family: Nunito, arial, sans-serif; color: rgb(228, 230, 235); font-size: medium; text-align: start;&quot;&gt;Mix and match languages,&amp;nbsp;better utilization of resources&lt;/p&gt;" style="text;html=1;strokeColor=none;fillColor=none;align=center;verticalAlign=middle;whiteSpace=wrap;rounded=0;labelBackgroundColor=none;labelBorderColor=none;" vertex="1" parent="1">
          <mxGeometry x="620" y="300" width="240" height="95" as="geometry" />
        </mxCell>
        <mxCell id="95mYCwTlqbxVoNsBIj1y-28" value="" style="rounded=0;whiteSpace=wrap;html=1;fontColor=none;noLabel=1;labelBorderColor=none;" vertex="1" parent="1">
          <mxGeometry x="610" y="420" width="320" height="110" as="geometry" />
        </mxCell>
        <mxCell id="95mYCwTlqbxVoNsBIj1y-29" value="&lt;p style=&quot;box-sizing: border-box; font-family: Nunito, arial, sans-serif; color: rgb(228, 230, 235); font-size: medium; text-align: start;&quot;&gt;&lt;strong style=&quot;box-sizing: border-box;&quot;&gt;Traditional&lt;/strong&gt;&amp;nbsp;/ VMs&lt;/p&gt;&lt;p style=&quot;box-sizing: border-box; font-family: Nunito, arial, sans-serif; color: rgb(228, 230, 235); font-size: medium; text-align: start;&quot;&gt;Global workforce is most familiar with this kind of architecture and lots of documentation, frameworks, and support.&lt;/p&gt;" style="text;html=1;strokeColor=none;fillColor=none;align=center;verticalAlign=middle;whiteSpace=wrap;rounded=0;labelBackgroundColor=none;labelBorderColor=none;" vertex="1" parent="1">
          <mxGeometry x="620" y="430" width="300" height="95" as="geometry" />
        </mxCell>
      </root>
    </mxGraphModel>
  </diagram>
</mxfile>
